<?xml version="1.0" encoding="UTF-8"?>
<svg xmlns="http://www.w3.org/2000/svg" xmlns:xlink="http://www.w3.org/1999/xlink" width="512pt" height="489pt" viewBox="0 0 512 489" version="1.1">
<g id="surface1">
<path style="fill-rule:evenodd;fill:rgb(100%,100%,100%);fill-opacity:1;stroke-width:1;stroke-linecap:butt;stroke-linejoin:round;stroke:rgb(0%,0%,0%);stroke-opacity:1;stroke-miterlimit:10;" d="M 17.722136 29.044481 C 17.722136 21.567718 23.783062 15.506163 31.260239 15.506163 L 85.411778 15.506163 C 89.002113 15.506163 92.44594 16.932719 94.984553 19.471536 C 97.524037 22.010352 98.949881 25.454517 98.949881 29.044481 L 98.949881 83.196879 C 98.949881 90.673641 92.888955 96.735197 85.411778 96.735197 L 31.260239 96.735197 C 23.783062 96.735197 17.722136 90.673641 17.722136 83.196879 Z M 17.722136 29.044481 " transform="matrix(4.479256,0,0,4.47428,1.305519,0)"/>
<path style="fill-rule:evenodd;fill:rgb(0%,0%,0%);fill-opacity:1;stroke-width:1;stroke-linecap:butt;stroke-linejoin:round;stroke:rgb(0%,0%,0%);stroke-opacity:1;stroke-miterlimit:10;" d="M 31.013441 35.443905 C 31.013441 31.773621 33.988092 28.798282 37.658658 28.798282 C 39.421123 28.798282 41.112078 29.498464 42.358274 30.7443 C 43.60447 31.991009 44.304747 33.681226 44.304747 35.443905 C 44.304747 39.114188 41.329225 42.089528 37.658658 42.089528 C 33.988092 42.089528 31.013441 39.114188 31.013441 35.443905 Z M 31.013441 35.443905 " transform="matrix(4.479256,0,0,4.47428,1.305519,0)"/>
<path style="fill-rule:evenodd;fill:rgb(0%,0%,0%);fill-opacity:1;stroke-width:1;stroke-linecap:butt;stroke-linejoin:round;stroke:rgb(0%,0%,0%);stroke-opacity:1;stroke-miterlimit:10;" d="M 72.36727 76.798328 C 72.36727 73.127171 75.342792 70.151832 79.013359 70.151832 C 80.775824 70.151832 82.465906 70.852014 83.712102 72.098724 C 84.958299 73.345433 85.658575 75.035649 85.658575 76.798328 C 85.658575 80.468612 82.683053 83.443951 79.013359 83.443951 C 75.342792 83.443951 72.36727 80.468612 72.36727 76.798328 Z M 72.36727 76.798328 " transform="matrix(4.479256,0,0,4.47428,1.305519,0)"/>
<path style="fill-rule:evenodd;fill:rgb(0%,0%,0%);fill-opacity:1;stroke-width:1;stroke-linecap:butt;stroke-linejoin:round;stroke:rgb(0%,0%,0%);stroke-opacity:1;stroke-miterlimit:10;" d="M 72.36727 35.443905 C 72.36727 31.773621 75.342792 28.798282 79.013359 28.798282 C 80.775824 28.798282 82.465906 29.498464 83.712102 30.7443 C 84.958299 31.991009 85.658575 33.681226 85.658575 35.443905 C 85.658575 39.114188 82.683053 42.089528 79.013359 42.089528 C 75.342792 42.089528 72.36727 39.114188 72.36727 35.443905 Z M 72.36727 35.443905 " transform="matrix(4.479256,0,0,4.47428,1.305519,0)"/>
<path style="fill-rule:evenodd;fill:rgb(0%,0%,0%);fill-opacity:1;stroke-width:1;stroke-linecap:butt;stroke-linejoin:round;stroke:rgb(0%,0%,0%);stroke-opacity:1;stroke-miterlimit:10;" d="M 31.013441 76.798328 C 31.013441 73.127171 33.988092 70.151832 37.658658 70.151832 C 39.421123 70.151832 41.112078 70.852014 42.358274 72.098724 C 43.60447 73.345433 44.304747 75.035649 44.304747 76.798328 C 44.304747 80.468612 41.329225 83.443951 37.658658 83.443951 C 33.988092 83.443951 31.013441 80.468612 31.013441 76.798328 Z M 31.013441 76.798328 " transform="matrix(4.479256,0,0,4.47428,1.305519,0)"/>
<path style="fill-rule:evenodd;fill:rgb(0%,0%,0%);fill-opacity:1;stroke-width:1;stroke-linecap:butt;stroke-linejoin:round;stroke:rgb(0%,0%,0%);stroke-opacity:1;stroke-miterlimit:10;" d="M 51.690356 54.645669 C 51.690356 50.975386 54.665878 48.000046 58.335572 48.000046 C 60.098909 48.000046 61.788992 48.700229 63.035188 49.946065 C 64.281384 51.192774 64.981661 52.88299 64.981661 54.645669 C 64.981661 58.315953 62.006139 61.291292 58.335572 61.291292 C 54.665878 61.291292 51.690356 58.315953 51.690356 54.645669 Z M 51.690356 54.645669 " transform="matrix(4.479256,0,0,4.47428,1.305519,0)"/>
</g>
</svg>
