<svg version="1.1" viewBox="0.0 0.0 113.7217847769029 109.29133858267717" fill="none" stroke="none" stroke-linecap="square" stroke-miterlimit="10" xmlns:xlink="http://www.w3.org/1999/xlink" xmlns="http://www.w3.org/2000/svg"><clipPath id="p.0"><path d="m0 0l113.72179 0l0 109.291336l-113.72179 0l0 -109.291336z" clip-rule="nonzero"/></clipPath><g clip-path="url(#p.0)"><path fill="#000000" fill-opacity="0.0" d="m0 0l113.72179 0l0 109.291336l-113.72179 0z" fill-rule="evenodd"/><path fill="#ffffff" d="m17.721785 29.04489l0 0c0 -7.4770107 6.0613155 -13.538328 13.538328 -13.538328l54.15169 0l0 0c3.5905838 0 7.034111 1.4263554 9.573044 3.9652843c2.5389252 2.538929 3.9652863 5.982456 3.9652863 9.573044l0 54.151688c0 7.4770126 -6.0613174 13.53833 -13.53833 13.53833l-54.15169 0c-7.4770126 0 -13.538328 -6.0613174 -13.538328 -13.53833z" fill-rule="evenodd"/><path stroke="#000000" stroke-width="1.0" stroke-linejoin="round" stroke-linecap="butt" d="m17.721785 29.04489l0 0c0 -7.4770107 6.0613155 -13.538328 13.538328 -13.538328l54.15169 0l0 0c3.5905838 0 7.034111 1.4263554 9.573044 3.9652843c2.5389252 2.538929 3.9652863 5.982456 3.9652863 9.573044l0 54.151688c0 7.4770126 -6.0613174 13.53833 -13.53833 13.53833l-54.15169 0c-7.4770126 0 -13.538328 -6.0613174 -13.538328 -13.53833z" fill-rule="evenodd"/><path fill="#000000" d="m31.013123 35.44357l0 0c0 -3.6703014 2.9753685 -6.645668 6.645672 -6.645668l0 0c1.7625389 0 3.4528923 0.7001667 4.699196 1.9464703c1.2463036 1.2463055 1.9464722 2.9366589 1.9464722 4.699198l0 0c0 3.6703033 -2.9753685 6.645668 -6.645668 6.645668l0 0c-3.6703033 0 -6.645672 -2.9753647 -6.645672 -6.645668z" fill-rule="evenodd"/><path stroke="#000000" stroke-width="1.0" stroke-linejoin="round" stroke-linecap="butt" d="m31.013123 35.44357l0 0c0 -3.6703014 2.9753685 -6.645668 6.645672 -6.645668l0 0c1.7625389 0 3.4528923 0.7001667 4.699196 1.9464703c1.2463036 1.2463055 1.9464722 2.9366589 1.9464722 4.699198l0 0c0 3.6703033 -2.9753685 6.645668 -6.645668 6.645668l0 0c-3.6703033 0 -6.645672 -2.9753647 -6.645672 -6.645668z" fill-rule="evenodd"/><path fill="#000000" d="m72.367455 76.7979l0 0c0 -3.6702957 2.9753647 -6.645668 6.645668 -6.645668l0 0c1.7625427 0 3.452896 0.7001648 4.699196 1.9464722c1.2463074 1.2463074 1.9464722 2.9366608 1.9464722 4.699196l0 0c0 3.6703033 -2.9753647 6.6456757 -6.645668 6.6456757l0 0c-3.6703033 0 -6.645668 -2.9753723 -6.645668 -6.6456757z" fill-rule="evenodd"/><path stroke="#000000" stroke-width="1.0" stroke-linejoin="round" stroke-linecap="butt" d="m72.367455 76.7979l0 0c0 -3.6702957 2.9753647 -6.645668 6.645668 -6.645668l0 0c1.7625427 0 3.452896 0.7001648 4.699196 1.9464722c1.2463074 1.2463074 1.9464722 2.9366608 1.9464722 4.699196l0 0c0 3.6703033 -2.9753647 6.6456757 -6.645668 6.6456757l0 0c-3.6703033 0 -6.645668 -2.9753723 -6.645668 -6.6456757z" fill-rule="evenodd"/><path fill="#000000" d="m72.367455 35.44357l0 0c0 -3.6703014 2.9753647 -6.645668 6.645668 -6.645668l0 0c1.7625427 0 3.452896 0.7001667 4.699196 1.9464703c1.2463074 1.2463055 1.9464722 2.9366589 1.9464722 4.699198l0 0c0 3.6703033 -2.9753647 6.645668 -6.645668 6.645668l0 0c-3.6703033 0 -6.645668 -2.9753647 -6.645668 -6.645668z" fill-rule="evenodd"/><path stroke="#000000" stroke-width="1.0" stroke-linejoin="round" stroke-linecap="butt" d="m72.367455 35.44357l0 0c0 -3.6703014 2.9753647 -6.645668 6.645668 -6.645668l0 0c1.7625427 0 3.452896 0.7001667 4.699196 1.9464703c1.2463074 1.2463055 1.9464722 2.9366589 1.9464722 4.699198l0 0c0 3.6703033 -2.9753647 6.645668 -6.645668 6.645668l0 0c-3.6703033 0 -6.645668 -2.9753647 -6.645668 -6.645668z" fill-rule="evenodd"/><path fill="#000000" d="m31.013123 76.7979l0 0c0 -3.6702957 2.9753685 -6.645668 6.645672 -6.645668l0 0c1.7625389 0 3.4528923 0.7001648 4.699196 1.9464722c1.2463036 1.2463074 1.9464722 2.9366608 1.9464722 4.699196l0 0c0 3.6703033 -2.9753685 6.6456757 -6.645668 6.6456757l0 0c-3.6703033 0 -6.645672 -2.9753723 -6.645672 -6.6456757z" fill-rule="evenodd"/><path stroke="#000000" stroke-width="1.0" stroke-linejoin="round" stroke-linecap="butt" d="m31.013123 76.7979l0 0c0 -3.6702957 2.9753685 -6.645668 6.645672 -6.645668l0 0c1.7625389 0 3.4528923 0.7001648 4.699196 1.9464722c1.2463036 1.2463074 1.9464722 2.9366608 1.9464722 4.699196l0 0c0 3.6703033 -2.9753685 6.6456757 -6.645668 6.6456757l0 0c-3.6703033 0 -6.645672 -2.9753723 -6.645672 -6.6456757z" fill-rule="evenodd"/><path fill="#000000" d="m51.69029 54.645668l0 0c0 -3.6702995 2.9753685 -6.645668 6.645668 -6.645668l0 0c1.7625427 0 3.452896 0.7001686 4.6991997 1.9464722c1.2463074 1.2463036 1.9464722 2.936657 1.9464722 4.699196l0 0c0 3.6703033 -2.9753685 6.645672 -6.645672 6.645672l0 0c-3.6702995 0 -6.645668 -2.9753685 -6.645668 -6.645672z" fill-rule="evenodd"/><path stroke="#000000" stroke-width="1.0" stroke-linejoin="round" stroke-linecap="butt" d="m51.69029 54.645668l0 0c0 -3.6702995 2.9753685 -6.645668 6.645668 -6.645668l0 0c1.7625427 0 3.452896 0.7001686 4.6991997 1.9464722c1.2463074 1.2463036 1.9464722 2.936657 1.9464722 4.699196l0 0c0 3.6703033 -2.9753685 6.645672 -6.645672 6.645672l0 0c-3.6702995 0 -6.645668 -2.9753685 -6.645668 -6.645672z" fill-rule="evenodd"/></g></svg>